<svg width="38" height="38" viewBox="0 0 38 38" fill="none" xmlns="http://www.w3.org/2000/svg">
<path d="M19.0002 4.2998C27.1187 4.29991 33.7004 10.8815 33.7004 19C33.7003 27.1184 27.1186 33.7001 19.0002 33.7002C10.8817 33.7002 4.30009 27.1185 4.29999 19C4.29999 10.8814 10.8816 4.2998 19.0002 4.2998ZM26.0715 22.6768C25.1929 21.7982 23.8022 21.7431 22.8596 22.5117L22.6769 22.6768C20.7097 24.6439 17.558 24.7056 15.5168 22.8613L15.3234 22.6768C14.4448 21.7982 13.0542 21.7431 12.1115 22.5117L11.9289 22.6768C11.0503 23.5554 10.995 24.9461 11.7639 25.8887L11.9289 26.0703C15.7121 29.8535 21.7729 29.9726 25.6984 26.4258L26.0715 26.0703C26.9499 25.1915 27.0046 23.8009 26.2355 22.8584L26.0715 22.6768ZM13.3 12.7998C11.9745 12.7998 10.8996 13.8747 10.8996 15.2002C10.8998 16.5255 11.9746 17.5996 13.3 17.5996C14.6253 17.5996 15.7002 16.5255 15.7004 15.2002C15.7004 13.8747 14.6255 12.7998 13.3 12.7998ZM24.7004 12.7998C23.3749 12.7998 22.3 13.8747 22.3 15.2002C22.3002 16.5255 23.375 17.5996 24.7004 17.5996C26.0256 17.5994 27.0996 16.5254 27.0998 15.2002C27.0998 13.8748 26.0257 12.8 24.7004 12.7998Z" fill="white" stroke="white"/>
</svg>
