<svg width="38" height="38" viewBox="0 0 38 38" fill="none" xmlns="http://www.w3.org/2000/svg">
<path fill-rule="evenodd" clip-rule="evenodd" d="M19 34.2001C27.3948 34.2001 34.2001 27.3948 34.2001 19C34.2001 10.6053 27.3948 3.80005 19 3.80005C10.6053 3.80005 3.80005 10.6053 3.80005 19C3.80005 27.3948 10.6053 34.2001 19 34.2001ZM13.3 17.1C14.3494 17.1 15.2 16.2494 15.2 15.2C15.2 14.1507 14.3494 13.3 13.3 13.3C12.2507 13.3 11.4 14.1507 11.4 15.2C11.4 16.2494 12.2507 17.1 13.3 17.1ZM26.6 15.2C26.6 16.2494 25.7494 17.1 24.7001 17.1C23.6507 17.1 22.8 16.2494 22.8 15.2C22.8 14.1507 23.6507 13.3 24.7001 13.3C25.7494 13.3 26.6 14.1507 26.6 15.2ZM25.7176 25.7174C26.4596 24.9754 26.4596 23.7724 25.7176 23.0304C24.9756 22.2884 23.7726 22.2884 23.0306 23.0304C20.8046 25.2564 17.1955 25.2564 14.9695 23.0304C14.2275 22.2884 13.0245 22.2884 12.2825 23.0304C11.5405 23.7724 11.5405 24.9754 12.2825 25.7174C15.9925 29.4274 22.0076 29.4274 25.7176 25.7174Z" fill="white"/>
</svg>
