<svg width="38" height="38" viewBox="0 0 38 38" fill="none" xmlns="http://www.w3.org/2000/svg">
<path d="M4.75 7.91667C4.75 6.16777 6.16777 4.75 7.91667 4.75H13.1088C13.7903 4.75 14.3954 5.1861 14.6109 5.83264L16.9824 12.9473C17.2316 13.6948 16.8932 14.5117 16.1884 14.8641L12.6144 16.6511C14.3596 20.5219 17.4781 23.6404 21.3489 25.3856L23.1359 21.8116C23.4883 21.1068 24.3052 20.7684 25.0527 21.0176L32.1674 23.3891C32.8139 23.6046 33.25 24.2097 33.25 24.8912V30.0833C33.25 31.8322 31.8322 33.25 30.0833 33.25H28.5C15.3832 33.25 4.75 22.6168 4.75 9.5V7.91667Z" stroke="#111827" stroke-width="2" stroke-linecap="round" stroke-linejoin="round"/>
</svg>
